<svg width="14" height="14" viewBox="0 0 14 14" fill="none" xmlns="http://www.w3.org/2000/svg">
<mask id="mask0_1_416" style="mask-type:alpha" maskUnits="userSpaceOnUse" x="0" y="0" width="14" height="14">
<rect width="14" height="14" fill="#D9D9D9"/>
</mask>
<g mask="url(#mask0_1_416)">
<path d="M6.99986 7.00002C7.32069 7.00002 7.59534 6.88578 7.82382 6.65731C8.05229 6.42884 8.16652 6.15419 8.16652 5.83335C8.16652 5.51252 8.05229 5.23787 7.82382 5.0094C7.59534 4.78092 7.32069 4.66669 6.99986 4.66669C6.67902 4.66669 6.40437 4.78092 6.1759 5.0094C5.94743 5.23787 5.83319 5.51252 5.83319 5.83335C5.83319 6.15419 5.94743 6.42884 6.1759 6.65731C6.40437 6.88578 6.67902 7.00002 6.99986 7.00002ZM6.99986 12.8334C5.43458 11.5014 4.26548 10.2643 3.49257 9.12189C2.71965 7.97953 2.33319 6.92224 2.33319 5.95002C2.33319 4.49169 2.80229 3.32988 3.74048 2.4646C4.67868 1.59933 5.76514 1.16669 6.99986 1.16669C8.23458 1.16669 9.32104 1.59933 10.2592 2.4646C11.1974 3.32988 11.6665 4.49169 11.6665 5.95002C11.6665 6.92224 11.2801 7.97953 10.5071 9.12189C9.73423 10.2643 8.56514 11.5014 6.99986 12.8334Z" fill="#01498D"/>
</g>
</svg>
